<svg width="20" height="20" viewBox="0 0 20 20" fill="none" xmlns="http://www.w3.org/2000/svg">
<path d="M9.56664 2.91584C9.60189 2.82987 9.66191 2.75632 9.73907 2.70456C9.81624 2.65279 9.90706 2.62515 9.99997 2.62515C10.0929 2.62515 10.1837 2.65279 10.2609 2.70456C10.338 2.75632 10.3981 2.82987 10.4333 2.91584L12.2041 7.17501C12.2373 7.2547 12.2918 7.32371 12.3616 7.37443C12.4315 7.42516 12.5139 7.45563 12.6 7.46251L17.1983 7.83084C17.6141 7.86417 17.7825 8.38334 17.4658 8.65417L13.9625 11.6558C13.897 11.7118 13.8482 11.7848 13.8215 11.8666C13.7947 11.9485 13.791 12.0362 13.8108 12.12L14.8816 16.6075C14.9032 16.6975 14.8975 16.7919 14.8654 16.8788C14.8333 16.9656 14.7762 17.041 14.7013 17.0953C14.6264 17.1497 14.5371 17.1807 14.4446 17.1844C14.3521 17.188 14.2606 17.1642 14.1816 17.1158L10.2441 14.7117C10.1706 14.6668 10.0861 14.643 9.99997 14.643C9.91382 14.643 9.82933 14.6668 9.75581 14.7117L5.81831 17.1167C5.73935 17.165 5.64785 17.1888 5.55535 17.1852C5.46286 17.1815 5.37352 17.1506 5.29861 17.0962C5.22371 17.0418 5.16661 16.9664 5.13452 16.8796C5.10243 16.7928 5.09678 16.6984 5.11831 16.6083L6.18914 12.12C6.209 12.0362 6.20535 11.9485 6.17859 11.8666C6.15183 11.7847 6.103 11.7118 6.03747 11.6558L2.53414 8.65417C2.46359 8.59403 2.41248 8.51431 2.38727 8.4251C2.36207 8.33589 2.3639 8.24121 2.39255 8.15305C2.42119 8.06488 2.47536 7.9872 2.54818 7.92984C2.62101 7.87248 2.70922 7.83803 2.80164 7.83084L7.39997 7.46251C7.48601 7.45563 7.56849 7.42516 7.63833 7.37443C7.70817 7.32371 7.76266 7.2547 7.79581 7.17501L9.56664 2.91584Z" stroke="#1D1D1D" stroke-width="1.5" stroke-linecap="round" stroke-linejoin="round"/>
</svg>
